
 <!-- ACTIVIDAD -->
  


<svg xmlns="http://www.w3.org/2000/svg" viewBox="0 0 900 460" role="img" aria-labelledby="t d">
  <title id="t">Una historia observada a través de distintos lentes</title>
  <desc id="d">Cinco lentes representan eurocentrismo, androcentrismo, tecnocracia, colonialismo epistémico y universalismo abstracto.</desc>

  <rect width="900" height="460" rx="32" fill="#f7faff"/>

  <g font-family="Arial" text-anchor="middle">
    <text x="450" y="55" font-size="29" fill="#163d86" font-weight="700">
      Los relatos también seleccionan qué se vuelve visible
    </text>

    <!-- Mangos de las lupas -->
    <g stroke="#2f6fed" stroke-width="16" stroke-linecap="round">
      <line x1="166" y1="256" x2="218" y2="308"/>
      <line x1="331" y1="256" x2="383" y2="308"/>
      <line x1="496" y1="256" x2="548" y2="308"/>
      <line x1="661" y1="256" x2="713" y2="308"/>
      <line x1="826" y1="256" x2="878" y2="308"/>
    </g>

    <!-- Círculos de las lupas -->
    <g stroke="#2f6fed" stroke-width="5" fill="#fff">
      <circle cx="120" cy="210" r="72"/>
      <circle cx="285" cy="210" r="72"/>
      <circle cx="450" cy="210" r="72"/>
      <circle cx="615" cy="210" r="72"/>
      <circle cx="780" cy="210" r="72"/>
    </g>

    <!-- Textos dentro de las lupas -->
    <g fill="#163d86" font-size="20">
      <text x="120" y="205">Euro-</text>
      <text x="120" y="231">centrismo</text>

      <text x="285" y="205">Andro-</text>
      <text x="285" y="231">centrismo</text>

      <text x="450" y="218">Tecnocracia</text>

      <text x="615" y="197">Colonialismo</text>
      <text x="615" y="223">epistémico</text>

      <text x="780" y="197">Universalismo</text>
      <text x="780" y="223">abstracto</text>
    </g>

    <text x="450" y="365" font-size="25" fill="#334155">
      Cambiar el lente modifica las preguntas, las fuentes y los protagonistas.
    </text>
  </g>
</svg>
